<svg xmlns="http://www.w3.org/2000/svg" width="768" height="768" viewBox="0 0 768 768" version="1.1">
	<path fill-opacity="0.157" d="M 307.073 87.864 C 306.298 89.311, 306.737 90.770, 309.038 94.398 C 310.667 96.968, 312 99.260, 312 99.492 C 312 99.725, 308.738 100.854, 304.750 102.001 C 265.446 113.307, 250.924 122.678, 246.522 139.576 C 244.725 146.476, 245.348 151.869, 248.642 157.919 C 250.993 162.237, 251.011 162.450, 249.432 167.205 C 248.015 171.470, 247.865 177.498, 248.217 215.959 L 248.619 259.847 244.266 261.066 C 236.077 263.358, 229.982 273.566, 230.017 284.928 C 230.040 292.204, 232.271 302.549, 235.132 308.639 C 236.788 312.164, 237.590 316.194, 238.053 323.300 C 238.616 331.958, 239.031 333.583, 241.609 337.252 C 245.818 343.240, 250.126 345.452, 257.199 345.256 L 263 345.095 263 367.482 C 263 380.463, 263.434 391.011, 264.033 392.587 C 264.601 394.081, 270.714 400.871, 277.618 407.675 L 290.170 420.046 289.668 462.607 C 289.392 486.015, 289.016 505.304, 288.833 505.472 C 288.650 505.640, 284.942 507.872, 280.594 510.432 C 275.102 513.665, 272.368 514.768, 271.644 514.044 C 269.991 512.391, 268.541 512.789, 264.499 516.001 C 260.622 519.082, 253.541 522.663, 218 539.519 C 165.120 564.598, 164.970 564.675, 146 576.803 C 138.437 581.638, 121.361 599.017, 115.840 607.500 C 106.522 621.816, 99.454 637.098, 92.251 658.500 C 86.573 675.372, 85.635 680.067, 85.563 691.976 C 85.506 701.412, 85.684 702.489, 87.356 702.820 C 90.506 703.444, 91.181 701.583, 92.061 689.845 C 94.060 663.178, 111.175 622.255, 129.334 600.719 C 134.217 594.928, 151.198 580.698, 156.646 577.832 C 158.766 576.717, 162.525 574.527, 165 572.965 C 167.475 571.403, 176.250 566.903, 184.500 562.963 C 192.750 559.024, 205.125 553.079, 212 549.753 C 218.875 546.427, 230.575 540.929, 238 537.534 C 245.425 534.139, 254.779 529.494, 258.786 527.211 L 266.072 523.060 267.036 525.595 C 267.566 526.989, 268 528.561, 268 529.087 C 268 531.148, 273.986 543.090, 277.931 548.899 C 290.636 567.608, 308.613 580.959, 331.280 588.520 C 345.563 593.284, 356.308 594.879, 372 594.562 C 395.904 594.080, 418.765 586.469, 439.628 572.045 C 454.221 561.957, 468.139 543.793, 472.993 528.500 C 475.565 520.398, 474.621 520.478, 488.750 527.168 C 495.763 530.489, 503.668 534.064, 506.317 535.114 C 508.966 536.164, 513.916 538.308, 517.317 539.879 C 524.299 543.103, 529.520 545.365, 549.500 553.823 C 557.200 557.083, 567.984 561.649, 573.464 563.970 C 586.865 569.647, 611.105 581.780, 618.500 586.512 C 628.155 592.691, 637.342 600.535, 642.181 606.732 C 659.428 628.817, 675 669.753, 675 693.006 C 675 701.509, 675.560 703, 678.751 703 L 681.287 703 680.717 690.250 C 679.879 671.519, 673.819 650.657, 662.491 627.500 C 652.177 606.416, 640.857 593.364, 621.491 580.229 C 614.122 575.231, 589.996 563.544, 572.500 556.498 C 565.350 553.618, 555.625 549.403, 550.889 547.131 C 546.152 544.859, 542.021 543, 541.708 543 C 541.396 543, 538.296 541.710, 534.820 540.134 C 527.500 536.815, 512.223 530.175, 496.500 523.479 C 490.450 520.902, 482.918 517.390, 479.762 515.673 C 474.567 512.847, 473.723 512.666, 470.826 513.759 C 468.066 514.801, 467.208 514.700, 464.564 513.020 C 462.879 511.950, 459.363 509.925, 456.750 508.520 C 452.668 506.325, 451.981 505.512, 451.865 502.733 C 451.790 500.955, 451.678 482.497, 451.615 461.715 C 451.532 434.420, 451.181 423.731, 450.349 423.215 C 449.607 422.753, 452.562 418.601, 458.687 411.500 C 463.906 405.450, 469.374 398.734, 470.838 396.576 L 473.500 392.652 473.815 368.898 L 474.130 345.143 479.315 345.142 C 485.294 345.142, 488.582 344.063, 491.739 341.067 C 495.744 337.267, 497.007 333.461, 497.309 324.281 C 497.540 317.261, 498.133 314.355, 500.268 309.788 C 503.507 302.858, 507 289.605, 507 284.242 C 507 272.736, 498.946 261, 491.050 261 C 489.022 261, 489 260.616, 489 225.950 C 489 195.131, 489.202 190.514, 490.672 187.700 C 491.971 185.215, 492.350 181.708, 492.368 172 C 492.388 161.444, 492.069 158.800, 490.322 155 C 487.679 149.254, 482.660 144.497, 477.211 142.575 C 472.485 140.907, 469.621 141.189, 460.226 144.245 C 456.776 145.367, 453.685 146.018, 453.357 145.690 C 453.030 145.363, 453.490 141.868, 454.381 137.925 C 456.422 128.888, 456.409 126.496, 454.286 119.921 C 453.044 116.077, 451.045 113.077, 447.036 109.045 C 437.069 99.020, 432.133 97.374, 397.500 92.520 C 376.384 89.561, 333.190 86, 318.412 86 C 309.346 86, 307.947 86.230, 307.073 87.864 M 315 92.419 C 315 92.748, 316.350 94.881, 318 97.159 C 321.793 102.395, 321.864 104.765, 318.250 105.588 C 300.457 109.638, 282.956 115.458, 272.166 120.912 C 259.967 127.078, 252.032 137.227, 252.010 146.691 C 251.996 152.504, 253.205 152.672, 255.434 147.168 C 260.860 133.769, 269.531 125.252, 284 119.108 C 287.025 117.823, 290.341 116.336, 291.370 115.803 C 292.398 115.270, 295.773 114.813, 298.870 114.788 C 303.289 114.751, 305.108 114.232, 307.327 112.370 C 308.882 111.066, 311.357 109.739, 312.827 109.421 C 324.242 106.950, 326.691 104.778, 323.272 100.155 C 322.082 98.544, 321.383 96.950, 321.720 96.613 C 322.057 96.276, 333.133 96, 346.333 96 C 359.533 96, 370.118 95.785, 369.856 95.523 C 369.593 95.260, 360.856 94.595, 350.439 94.045 C 340.023 93.495, 327.788 92.769, 323.250 92.433 C 318.712 92.096, 315 92.090, 315 92.419 M 374.269 96.693 C 375.242 96.947, 376.592 96.930, 377.269 96.656 C 377.946 96.382, 377.150 96.175, 375.500 96.195 C 373.850 96.215, 373.296 96.439, 374.269 96.693 M 257.835 147.654 C 256.919 147.907, 255.854 148.876, 255.467 149.807 C 253.891 153.602, 254.297 155.927, 257.098 159.156 L 260 162.500 262.921 159.132 C 266.466 155.045, 267.615 151.175, 265.808 149.410 C 264.265 147.902, 260.188 147.004, 257.835 147.654 M 417 150.500 C 410.986 152.242, 414.058 152.275, 421 150.543 C 424.025 149.788, 425.375 149.176, 424 149.183 C 422.625 149.190, 419.475 149.783, 417 150.500 M 438 152.006 C 431.432 154.896, 417.552 158.553, 402.036 161.481 C 373.335 166.897, 336.797 165.983, 297.635 158.869 C 291.660 157.784, 286.557 157.109, 286.297 157.370 C 286.036 157.631, 285.388 159.778, 284.857 162.142 C 283.019 170.322, 276.914 176.987, 271.250 176.996 L 269 177 268.788 210.250 C 268.412 269.328, 269.239 388.456, 270.036 390 C 271.052 391.966, 290.184 410.771, 296.160 415.675 C 298.723 417.779, 304.501 422.796, 309.001 426.825 C 313.501 430.854, 317.397 433.937, 317.658 433.676 C 318.136 433.197, 317.490 428.165, 314.486 409 C 312.207 394.458, 303.162 356.740, 300.880 352.264 C 298.382 347.365, 299.185 345.448, 304.282 344.134 C 306.602 343.536, 310.057 342.086, 311.959 340.911 L 315.418 338.775 312.742 337.373 C 305.557 333.608, 294.934 334.913, 290.573 340.096 C 286.651 344.757, 287.238 352.167, 292.493 364.351 C 294.070 368.006, 289.635 365.627, 287.381 361.609 C 282.691 353.248, 282.296 341.776, 286.478 335.393 C 288.543 332.241, 287.821 331.332, 284.230 332.565 C 280.193 333.951, 277.008 340.922, 276.968 348.462 C 276.939 353.989, 276.812 354.336, 275.468 352.559 C 273.334 349.737, 273.575 338.532, 275.880 333.459 C 279.426 325.652, 287.579 321.299, 296.188 322.616 C 301.917 323.493, 312.814 328.447, 316.246 331.736 C 321.027 336.317, 319.516 341.971, 312.696 345.025 C 308.612 346.853, 308.589 346.893, 311.043 347.826 C 312.413 348.347, 317.351 349.520, 322.017 350.432 C 329.974 351.989, 334.063 352.822, 351.500 356.438 C 362.536 358.727, 372.958 359.368, 377.813 358.055 C 380.185 357.414, 383.335 356.713, 384.813 356.497 C 392.176 355.423, 415.532 350.366, 424.231 347.962 L 427.963 346.931 423.481 342.637 C 421.017 340.275, 419 337.539, 419 336.556 C 419 334.195, 425.277 328.531, 430.958 325.767 C 433.766 324.400, 438.001 323.411, 442.051 323.176 C 450.033 322.714, 454.889 324.718, 459.411 330.340 C 462.322 333.958, 462.520 334.753, 462.844 344.090 C 463.033 349.541, 463.483 353.993, 463.844 353.985 C 464.205 353.976, 465.175 353.543, 466 353.022 C 467.277 352.216, 467.593 345.874, 468.129 310.288 C 468.476 287.304, 468.813 248.822, 468.879 224.770 L 469 181.041 465.107 179.055 C 459.589 176.239, 454.782 170.168, 452.134 162.668 C 450.881 159.118, 448.796 155.217, 447.500 154 C 446.204 152.783, 445.385 151.160, 445.679 150.394 C 446.404 148.505, 445.544 148.685, 438 152.006 M 304.719 151.968 C 304.319 153.496, 305.341 153.946, 311.647 155.025 C 315.715 155.721, 319.333 156, 319.688 155.645 C 320.043 155.290, 319.086 155, 317.562 155 C 316.038 155, 312.630 153.915, 309.989 152.588 C 305.524 150.346, 305.154 150.302, 304.719 151.968 M 403.500 153.517 L 399.500 154.881 403.500 154.285 C 405.700 153.957, 408.625 153.347, 410 152.930 L 412.500 152.172 410 152.163 C 408.625 152.158, 405.700 152.767, 403.500 153.517 M 390.500 156 L 387.500 156.763 390.750 156.882 C 392.538 156.947, 394 156.550, 394 156 C 394 155.450, 393.887 155.053, 393.750 155.118 C 393.613 155.183, 392.150 155.580, 390.500 156 M 322.762 156.707 C 324.006 156.946, 325.806 156.937, 326.762 156.687 C 327.718 156.437, 326.700 156.241, 324.500 156.252 C 322.300 156.263, 321.518 156.468, 322.762 156.707 M 334.500 158.048 C 340.864 159.059, 375.862 159.471, 376.787 158.546 C 377.088 158.246, 370.171 157.997, 361.417 157.994 C 352.663 157.991, 341.675 157.787, 337 157.542 C 328.808 157.111, 328.718 157.130, 334.500 158.048 M 380.750 157.706 C 381.988 157.944, 384.012 157.944, 385.250 157.706 C 386.488 157.467, 385.475 157.272, 383 157.272 C 380.525 157.272, 379.512 157.467, 380.750 157.706 M 277.151 160.318 C 276.528 161.069, 276.283 161.950, 276.608 162.274 C 276.932 162.599, 276.298 162.629, 275.198 162.342 C 274.098 162.054, 271.073 162.759, 268.476 163.908 C 263.896 165.934, 263.800 166.064, 265.281 168.248 C 268.265 172.646, 274.816 169.952, 277.697 163.142 C 279.234 159.507, 278.968 158.128, 277.151 160.318 M 483.839 165.614 C 483.535 169.526, 482.999 173.192, 482.649 173.760 C 481.878 175.007, 478.156 174.163, 468.500 170.551 C 461.555 167.953, 461.518 167.950, 463.761 170.199 C 465.004 171.446, 467.673 172.929, 469.692 173.496 C 472.340 174.239, 473.534 175.219, 473.977 177.013 C 474.314 178.381, 474.570 200.262, 474.545 225.638 L 474.500 271.776 477.114 267.827 C 478.552 265.655, 480.737 263.172, 481.969 262.309 L 484.210 260.740 483.620 225.620 C 483.140 196.966, 483.298 189.303, 484.480 184 C 485.985 177.251, 486.265 166.695, 485.077 161.500 C 484.537 159.137, 484.274 160.011, 483.839 165.614 M 254 215.345 C 254 261.172, 254.023 261.711, 256.102 263.593 C 257.259 264.639, 258.946 266.846, 259.852 268.498 C 261.407 271.330, 261.528 268.815, 262 224 L 262.500 176.500 259.583 172.750 C 253.899 165.444, 254 164.671, 254 215.345 M 288.608 240.094 C 285.603 242.457, 285.103 246.961, 287.571 249.429 C 288.910 250.767, 292.592 251, 312.416 251 C 333.694 251, 335.832 250.843, 337.345 249.171 C 339.061 247.276, 339.514 243.316, 338.235 241.400 C 336.418 238.680, 332.647 238.202, 312.358 238.124 C 292.486 238.048, 291.059 238.166, 288.608 240.094 M 405.038 239.962 C 402.446 242.554, 402.430 246.430, 405 249 C 406.825 250.825, 408.469 251.016, 423.750 251.180 C 444.714 251.405, 447.087 251.227, 449.250 249.272 C 451.612 247.137, 451.460 242.727, 448.947 240.452 C 447.121 238.800, 444.698 238.558, 426.985 238.259 C 408.048 237.941, 406.976 238.024, 405.038 239.962 M 303.803 244.746 C 309.470 244.925, 318.470 244.924, 323.803 244.745 C 329.136 244.565, 324.500 244.419, 313.500 244.420 C 302.500 244.421, 298.136 244.568, 303.803 244.746 M 409.251 244.584 C 410.125 245.458, 444.999 245.620, 445 244.750 C 445 244.338, 436.825 244, 426.833 244 C 416.842 244, 408.929 244.263, 409.251 244.584 M 317.856 263.741 C 311.662 264.016, 310.128 264.405, 309.769 265.790 C 308.757 269.691, 309.786 270.088, 319.093 269.385 L 328 268.713 328 271.614 C 328 274.440, 327.884 274.505, 323.476 274.155 C 316.417 273.593, 313.612 277.612, 318 282 C 320.046 284.046, 328 284.928, 328 283.108 C 328 282.618, 329.075 281.947, 330.389 281.617 C 333.468 280.844, 334.314 277.445, 333.445 269.331 L 332.767 263 329.134 263.201 C 327.135 263.312, 322.060 263.555, 317.856 263.741 M 407.585 264.117 C 407.335 264.878, 406.964 268.598, 406.760 272.384 L 406.388 279.269 410.444 282.217 C 413.687 284.575, 415.188 285.056, 417.931 284.617 C 422.869 283.826, 424.396 281.926, 423.582 277.587 C 422.918 274.044, 422.848 274, 417.955 274 C 413.336 274, 413 273.830, 413 271.500 C 413 269.029, 413.100 269, 421.500 269 C 429.900 269, 430 268.971, 430 266.500 C 430 264.095, 429.757 264, 423.640 264 C 420.141 264, 415.200 263.715, 412.659 263.367 C 409.186 262.891, 407.927 263.077, 407.585 264.117 M 243.828 267.531 C 239.768 269.736, 235.805 278.623, 236.203 284.632 L 236.525 289.500 237.854 285 C 240.479 276.120, 247.853 270.245, 252.951 272.974 C 256.272 274.751, 255.376 276.822, 250.750 278.059 C 245.123 279.564, 244.404 280.268, 242.433 286.203 C 241.371 289.398, 240.067 291.431, 238.878 291.742 C 236.045 292.483, 236.533 296.214, 240.660 305.353 C 243.698 312.083, 244.419 314.997, 244.910 322.524 C 245.575 332.738, 247.148 336.149, 252.336 338.623 C 254.732 339.766, 256.475 339.934, 259.037 339.269 L 262.500 338.371 262.131 309.936 L 261.762 281.500 258.294 276.266 C 254.660 270.780, 249.666 265.972, 247.673 266.040 C 247.028 266.062, 245.298 266.733, 243.828 267.531 M 486.699 267.248 C 484.827 267.885, 482.256 270.679, 478.949 275.674 L 474 283.147 474 310.965 L 474 338.783 476.311 339.363 C 480.181 340.334, 485.768 338.176, 488.359 334.708 C 490.349 332.045, 490.841 329.970, 491.249 322.500 C 491.654 315.097, 492.304 312.313, 494.912 306.814 C 499.787 296.538, 501.526 281.518, 498.629 274.718 C 497.214 271.397, 493.630 267.676, 491 266.796 C 490.175 266.520, 488.239 266.724, 486.699 267.248 M 482.743 272.590 C 482.334 272.999, 482 274.335, 482 275.558 C 482 277.542, 484.229 278.937, 488.167 279.418 C 489.531 279.585, 490.540 281.269, 492 285.813 C 492.924 288.690, 494.172 290.609, 495.250 290.814 C 499.109 291.547, 496.026 278.937, 491.326 274.762 C 489.111 272.795, 483.866 271.468, 482.743 272.590 M 378.446 280.279 C 378.176 280.983, 378.078 290.321, 378.228 301.029 L 378.500 320.500 381 320.500 L 383.500 320.500 383.772 301.726 C 383.943 289.913, 383.652 282.219, 382.987 280.976 C 381.793 278.746, 379.188 278.346, 378.446 280.279 M 324.813 280.683 C 325.534 280.972, 326.397 280.936, 326.729 280.604 C 327.061 280.272, 326.471 280.036, 325.417 280.079 C 324.252 280.127, 324.015 280.364, 324.813 280.683 M 249 298 C 246.415 300.585, 246.473 301.870, 249.222 302.886 C 254.214 304.733, 258.880 300.970, 255.960 297.452 C 254.270 295.416, 251.354 295.646, 249 298 M 479.588 298.311 C 476.821 300.336, 478.224 302.691, 482.495 303.189 C 487.147 303.732, 489.964 301.880, 488.399 299.309 C 487.011 297.028, 482.101 296.472, 479.588 298.311 M 349.853 317.670 C 347.904 318.187, 347.032 320.949, 347.014 326.668 C 346.996 332.089, 347.790 334, 350.059 334 C 351.075 334, 355.323 335.800, 359.500 338 C 364.462 340.613, 368.378 341.992, 370.798 341.978 C 374.961 341.953, 381.843 339.120, 386.655 335.450 C 388.421 334.102, 390.338 333, 390.914 333 C 392.411 333, 393.174 329.152, 392.812 323.434 C 392.524 318.885, 392.285 318.475, 389.750 318.184 C 387.028 317.870, 387 317.927, 387 323.696 C 387 328.372, 386.630 329.721, 385.130 330.513 C 384.102 331.056, 381.318 332.564, 378.944 333.865 C 372.632 337.324, 366.463 337.072, 359.993 333.091 C 357.186 331.363, 354.464 330.213, 353.945 330.534 C 353.419 330.859, 353 329.526, 353 327.528 C 353 325.345, 353.558 323.723, 354.423 323.391 C 356.617 322.549, 357.079 320.222, 355.386 318.529 C 353.854 316.997, 352.926 316.853, 349.853 317.670 M 443.214 331.191 C 452.133 335.030, 454.163 344.560, 448.992 358.319 C 446.995 363.632, 444.789 366.123, 443.354 364.687 C 443.046 364.379, 443.965 360.609, 445.397 356.310 C 448.841 345.969, 448.779 342.625, 445.077 338.923 C 441.749 335.595, 437.108 335.122, 427.799 337.161 L 422.500 338.322 428.500 341.112 C 431.800 342.646, 435.457 343.924, 436.628 343.951 C 439.723 344.022, 441.395 346.394, 440.081 348.849 C 439.499 349.936, 438.538 350.987, 437.946 351.185 C 436.007 351.831, 427.290 388.662, 425.563 403.500 C 424.668 411.200, 423.705 418.850, 423.424 420.500 C 422.965 423.196, 423.036 423.297, 424.121 421.500 C 424.785 420.400, 425.658 419.275, 426.060 419 C 427.097 418.291, 440.783 394.954, 445.414 386 C 447.547 381.875, 450.994 375.575, 453.075 372 C 458.295 363.030, 460.293 355.476, 459.837 346.438 C 459.427 338.321, 457.821 335.205, 452.010 331.250 C 449.587 329.601, 447.342 329.022, 443.602 329.081 L 438.500 329.162 443.214 331.191 M 296.046 344.914 C 295.432 346.062, 295.347 347, 295.858 347 C 296.886 347, 298.304 343.971, 297.605 343.271 C 297.361 343.028, 296.660 343.767, 296.046 344.914 M 414.500 357.168 C 408.450 358.699, 396.760 361.159, 388.521 362.636 C 374.334 365.179, 372.986 365.256, 363.021 364.099 C 349.163 362.490, 336.240 360.317, 327 358.042 C 322.875 357.027, 318.011 355.933, 316.191 355.611 L 312.881 355.026 313.579 359.763 C 313.963 362.368, 314.735 364.795, 315.295 365.155 C 316.975 366.238, 353.384 374.889, 365.058 376.980 C 371.512 378.135, 371.996 378.059, 395.558 372.160 C 408.726 368.863, 420.675 365.714, 422.111 365.161 C 424.294 364.320, 424.812 363.363, 425.270 359.328 C 425.572 356.672, 425.747 354.474, 425.659 354.442 C 425.572 354.410, 420.550 355.637, 414.500 357.168 M 416 373.190 C 407.990 375.523, 387.396 380.860, 384 381.484 C 382.625 381.736, 379.268 382.615, 376.540 383.437 C 370.693 385.198, 367.580 384.698, 338.500 377.324 C 313.555 370.998, 315.767 371.318, 316.163 374.094 C 316.459 376.166, 318.084 376.974, 329.500 380.722 C 336.650 383.069, 347.328 386.080, 353.229 387.412 C 359.130 388.743, 365.363 390.534, 367.080 391.390 C 369.798 392.746, 370.554 392.765, 372.925 391.539 C 374.423 390.764, 379.572 389.395, 384.367 388.497 C 389.162 387.598, 395.653 385.967, 398.792 384.872 C 404.021 383.049, 407.162 382.753, 415.463 383.304 C 417.995 383.471, 418.770 382.882, 420.784 379.258 C 422.080 376.925, 422.997 374.179, 422.821 373.156 C 422.509 371.346, 422.327 371.347, 416 373.190 M 319 384.162 C 319 386.410, 324.302 394.552, 328.876 399.328 C 337.139 407.957, 340.411 408.648, 351 404 C 357.104 401.321, 358.907 401, 367.859 401 C 373.371 401, 378.154 401.440, 378.486 401.978 C 378.848 402.563, 380.572 402.161, 382.780 400.978 C 387.490 398.453, 387.314 398.437, 395 402.093 C 398.575 403.794, 402.917 405.231, 404.650 405.288 C 408.098 405.400, 413.919 401.579, 416.652 397.408 C 418.152 395.119, 418.135 394.806, 416.402 392.892 C 411.746 387.747, 406.823 387.499, 398.065 391.967 C 395.317 393.369, 391.107 394.388, 386.759 394.704 C 382.949 394.982, 377.529 396.019, 374.714 397.010 C 369.774 398.750, 369.438 398.749, 364.945 396.978 C 362.386 395.970, 356.514 394.233, 351.896 393.120 C 347.278 392.007, 338.121 389.274, 331.547 387.048 C 317.813 382.397, 319 382.670, 319 384.162 M 296.536 428.123 C 296.262 428.880, 295.917 447.116, 295.769 468.646 C 295.528 503.664, 295.323 507.988, 293.820 509.646 C 292.897 510.666, 287.813 513.750, 282.524 516.500 C 273.150 521.374, 272.922 521.575, 273.478 524.500 C 274.905 532.011, 284.121 547.566, 292.979 557.416 C 297.791 562.767, 309.729 571.471, 318.695 576.165 C 331.382 582.809, 334.346 583.758, 356 588.119 C 369.836 590.906, 395.458 586.553, 414.872 578.116 C 427.003 572.845, 442.333 562.600, 449.040 555.282 C 457.781 545.746, 465.658 532.510, 467.383 524.460 C 467.995 521.606, 467.742 521.357, 460.317 517.500 C 456.082 515.300, 450.903 511.882, 448.808 509.905 L 445 506.310 445 466.655 C 445 444.845, 444.620 427, 444.155 427 C 442.703 427, 439.957 430.620, 440.748 431.491 C 441.162 431.948, 441.009 432.041, 440.408 431.699 C 439.177 430.998, 432.295 437.628, 433.256 438.589 C 433.597 438.930, 435.323 438.487, 437.091 437.604 C 441.181 435.564, 441.269 435.578, 440.460 438.125 C 439.971 439.666, 440.125 440.041, 441.018 439.489 C 441.949 438.914, 442.104 439.679, 441.653 442.614 C 440.111 452.646, 438.059 460.175, 435.970 463.468 C 434.143 466.345, 428.811 471.901, 428.599 471.146 C 428.545 470.952, 426.793 472.402, 424.707 474.370 C 422.621 476.337, 419.471 478.640, 417.707 479.487 C 415.943 480.334, 412.475 482.853, 410.001 485.085 C 407.526 487.317, 404.042 489.835, 402.259 490.681 C 400.476 491.527, 399.265 492.620, 399.568 493.110 C 399.870 493.599, 399.529 494, 398.809 494 C 398.088 494, 395.560 495.773, 393.189 497.940 C 386.552 504.007, 374.379 507.256, 366.369 505.099 C 364.109 504.491, 359.613 502.201, 356.380 500.010 C 350.451 495.995, 338 484.446, 338 482.963 C 338 482.523, 336.538 481.233, 334.750 480.096 C 332.962 478.958, 330.375 476.456, 329 474.535 C 327.625 472.614, 325.712 470.777, 324.750 470.454 C 323.788 470.130, 323 469.221, 323 468.433 C 323 467.645, 322.355 467, 321.567 467 C 320.779 467, 319.862 466.142, 319.529 465.092 C 319.196 464.043, 318.274 462.935, 317.479 462.630 C 316.666 462.318, 316.292 461.403, 316.624 460.538 C 317.040 459.454, 316.592 459, 315.107 459 C 313.635 459, 313 458.369, 313 456.906 C 313 455.679, 312.201 454.604, 311.069 454.308 C 309.921 454.008, 309.356 453.235, 309.676 452.401 C 310.028 451.485, 309.517 451, 308.201 451 C 306.680 451, 306.315 450.511, 306.710 449 C 307.074 447.609, 306.741 447, 305.617 447 C 304.727 447, 304 446.523, 304 445.941 C 304 445.359, 304.359 445.104, 304.798 445.375 C 305.237 445.646, 306.249 445.455, 307.048 444.949 C 307.846 444.444, 308.033 444.024, 307.463 444.015 C 306.892 444.007, 306.358 443.100, 306.275 442 C 306.192 440.900, 306.546 440, 307.062 440 C 307.578 440, 308 439.550, 308 439 C 308 438.450, 307.553 438, 307.008 438 C 305.502 438, 301 433.808, 301.550 432.918 C 301.816 432.489, 300.908 430.925, 299.534 429.442 C 297.704 427.468, 296.901 427.115, 296.536 428.123 M 361.972 428.859 C 363.332 429.951, 364.794 430.627, 365.222 430.363 C 365.650 430.098, 366 430.306, 366 430.824 C 366 431.343, 366.913 432.005, 368.029 432.297 C 369.144 432.589, 369.932 433.204, 369.779 433.664 C 369.476 434.572, 370.292 435.009, 372.250 434.985 C 373.096 434.974, 373.024 434.668, 372.028 434.038 C 370.797 433.260, 370.878 433.002, 372.528 432.460 C 377.068 430.969, 380.067 429.701, 380.426 429.120 C 380.637 428.779, 377.140 428.500, 372.655 428.500 C 368.170 428.500, 363.375 428.134, 362 427.687 L 359.500 426.875 361.972 428.859 M 391.583 427.866 C 391.152 428.563, 391.070 429.403, 391.400 429.733 C 392.295 430.628, 393.271 429.312, 392.787 427.862 C 392.449 426.846, 392.213 426.846, 391.583 427.866 M 308 435.965 C 308 436.534, 308.702 437, 309.559 437 C 310.483 437, 310.827 437.470, 310.405 438.155 C 309.988 438.829, 310.128 439.039, 310.741 438.660 C 311.716 438.058, 313.224 440.295, 312.723 441.602 C 312.437 442.347, 318.235 445.494, 319.324 445.185 C 319.778 445.056, 319.884 445.379, 319.560 445.904 C 319.236 446.428, 320.440 448.415, 322.235 450.319 C 325.786 454.085, 338.235 463, 339.943 463 C 340.524 463, 341 463.477, 341 464.059 C 341 464.641, 341.450 464.840, 342 464.500 C 342.550 464.160, 343 464.385, 343 465 C 343 465.615, 343.450 465.840, 344 465.500 C 344.550 465.160, 345 465.359, 345 465.941 C 345 466.523, 345.653 467, 346.450 467 C 347.248 467, 348.359 467.788, 348.920 468.750 C 349.481 469.712, 349.953 470.167, 349.970 469.760 C 349.986 469.353, 350.896 469.787, 351.991 470.724 C 354.901 473.216, 361.991 475.880, 365.884 475.944 C 370.047 476.013, 377 474.017, 377 472.754 C 377 472.231, 375.335 472.106, 373.198 472.467 C 367.388 473.448, 352.359 468.300, 344 462.465 C 341.525 460.737, 337.025 457.916, 334 456.195 C 330.975 454.475, 324.675 449.418, 320 444.958 C 311.141 436.507, 308 434.153, 308 435.965 M 420.802 439.899 C 420.280 443.452, 420.530 443.748, 421.895 441.196 C 422.426 440.204, 422.500 438.808, 422.059 438.095 C 421.521 437.225, 421.107 437.820, 420.802 439.899" stroke="none" fill="black" fill-rule="evenodd"/>
	<path fill-opacity="0.367" d="M 308.250 86.620 C 306.160 87.534, 306.839 90.905, 310.052 95.575 L 313.103 100.010 310.486 101.005 C 309.047 101.552, 307.214 102, 306.412 102 C 303.944 102, 277.852 111.011, 271.500 114.057 C 250.179 124.282, 240.978 141.762, 248.777 157.223 C 251.364 162.353, 251.459 162.959, 250.162 166.114 C 249.033 168.859, 248.802 178.134, 248.939 215.114 L 249.108 260.727 245.191 261.354 C 239.676 262.235, 233.668 268.908, 231.396 276.673 C 229.903 281.776, 229.843 283.555, 230.909 290.993 C 231.579 295.663, 233.515 302.863, 235.211 306.993 C 237.596 312.801, 238.441 316.684, 238.943 324.151 C 239.503 332.490, 239.971 334.350, 242.381 337.828 C 246.117 343.220, 250.788 345.348, 257.638 344.780 L 263 344.335 263 366.700 C 263 383.637, 263.339 389.845, 264.396 392.282 C 265.164 394.052, 271.239 400.893, 277.896 407.484 L 290 419.469 290 462.498 L 290 505.527 281.853 510.281 C 275.167 514.183, 273.130 514.927, 270.496 514.433 C 267.907 513.948, 266.725 514.350, 264.393 516.513 C 261.598 519.104, 241.157 529.433, 212.870 542.549 C 183.025 556.387, 159.983 568.218, 149.861 574.901 C 124.618 591.567, 109.029 613.248, 95.502 650.500 C 88.758 669.074, 86.158 680.109, 85.802 691.672 L 85.500 701.500 88 701.500 C 90.300 701.500, 90.520 701.100, 90.751 696.500 C 91.591 679.756, 96.391 661.851, 106.142 639.090 C 119.359 608.237, 135.266 589.880, 162.833 573.666 C 169.067 570, 174.314 567, 174.494 567 C 175.014 567, 249.862 531.230, 256.500 527.808 C 259.800 526.108, 263.290 524.033, 264.256 523.197 C 266.386 521.356, 266.101 520.959, 268.774 529.500 C 272.132 540.232, 279.102 551.161, 289.332 561.736 C 299.253 571.991, 307.831 578.214, 319.171 583.382 C 337.526 591.746, 361.348 596.036, 378.716 594.103 C 424.703 588.985, 461.764 562.354, 473.495 526 C 474.471 522.975, 475.357 520.389, 475.464 520.254 C 475.571 520.118, 478.098 521.325, 481.079 522.935 C 486.725 525.984, 531.972 545.924, 559.559 557.521 C 614.682 580.693, 634.762 593.619, 648.351 614.681 C 661.955 635.767, 673.716 667.687, 674.628 686 C 675.370 700.897, 675.650 702, 678.688 702 L 681.285 702 680.577 690.813 C 678.972 665.455, 665.196 627.576, 650.243 607.409 C 643.941 598.910, 634.370 589.791, 624.500 582.884 C 616.538 577.312, 591.231 564.688, 572 556.695 C 563.475 553.152, 549.975 547.329, 542 543.755 C 534.025 540.181, 519.850 534.010, 510.500 530.043 C 501.150 526.076, 488.846 520.594, 483.157 517.861 C 473.585 513.263, 472.647 513.001, 470.576 514.358 C 468.499 515.719, 467.804 515.510, 460.919 511.450 C 456.839 509.045, 452.938 506.591, 452.250 505.999 C 451.289 505.170, 451 495.628, 451 464.661 C 451 436.538, 450.666 424.066, 449.892 423.292 C 449.081 422.481, 449.593 421.287, 451.799 418.842 C 460.203 409.525, 470.157 397.146, 471.494 394.349 C 472.700 391.825, 473 386.624, 473 368.212 L 473 345.226 479.772 344.843 C 491.790 344.164, 497 337.773, 497 323.709 C 497 317.420, 497.510 314.928, 499.853 309.775 C 505.218 297.975, 507.314 283.272, 504.879 274.503 C 503.494 269.514, 496.427 262.235, 492.133 261.377 L 489 260.750 489 225.497 C 489 196.423, 489.263 189.615, 490.500 186.654 C 492.596 181.637, 492.576 161.313, 490.469 156.272 C 486.721 147.301, 479.705 142.066, 471.369 142.022 C 469.097 142.010, 464.249 143.125, 460.596 144.500 C 456.943 145.875, 453.694 147, 453.376 147 C 453.059 147, 453.059 144.863, 453.378 142.250 C 455.361 125.998, 455.311 122.274, 453.051 117.606 C 450.474 112.282, 441.880 104.086, 435.786 101.143 C 430.442 98.561, 404.731 93.394, 390.534 92.049 C 384.670 91.493, 379.541 90.834, 379.137 90.585 C 376.974 89.248, 310.716 85.542, 308.250 86.620 M 316.952 96.430 C 321.564 103.134, 321.145 104.625, 314.250 106.030 C 305.415 107.831, 280.270 116.331, 273 119.975 C 261.028 125.976, 254.740 132.748, 252.086 142.500 C 250.472 148.432, 253.080 156.057, 258.233 160.468 C 260.393 162.316, 262.961 165.329, 263.941 167.164 C 266.051 171.116, 269.614 171.954, 273.493 169.412 C 276.797 167.247, 278.618 163.732, 279.508 157.797 C 280.701 149.840, 281.679 149.523, 296.115 152.415 C 337.323 160.670, 369.091 161.738, 398.500 155.856 C 419.399 151.676, 435.735 147.401, 434.713 146.379 C 434.163 145.830, 415 149.514, 403 152.475 C 385.074 156.900, 379.420 157.508, 357.855 157.330 C 327.530 157.079, 313.179 155.145, 308.118 150.627 C 302.191 145.334, 300.210 132.390, 303.588 121.017 C 305.792 113.594, 309.240 110.447, 316.796 108.960 C 320.251 108.281, 323.650 106.939, 324.613 105.875 C 326.344 103.963, 326.298 103.693, 323.249 97.902 C 322.544 96.561, 341.922 96.140, 364.454 97.005 C 377.628 97.511, 388.550 97.783, 388.724 97.610 C 389.820 96.513, 333.720 92, 318.991 92 L 313.904 92 316.952 96.430 M 393.250 98.689 C 394.212 98.941, 395.788 98.941, 396.750 98.689 C 397.712 98.438, 396.925 98.232, 395 98.232 C 393.075 98.232, 392.288 98.438, 393.250 98.689 M 418 103.132 C 429.149 106.163, 437.202 110.486, 443.750 116.955 C 448.456 121.604, 449.174 121.364, 445.750 116.287 C 442.172 110.980, 434.433 106.270, 425.590 104.016 C 421.240 102.907, 416.965 102.041, 416.090 102.090 C 415.216 102.140, 416.075 102.609, 418 103.132 M 468 147.636 C 467.175 147.899, 463.899 149.303, 460.719 150.756 C 456.401 152.729, 455.097 153.790, 455.566 154.949 C 455.912 155.802, 457.126 158.895, 458.264 161.823 C 460.743 168.200, 464.639 172.632, 468.598 173.581 C 474.254 174.935, 473.998 172.539, 474.032 224.372 L 474.063 272.500 476.257 269.500 C 477.464 267.850, 479.684 265.243, 481.192 263.707 L 483.932 260.914 484.435 222.707 C 484.711 201.693, 485.194 179.100, 485.507 172.500 C 486.037 161.352, 485.915 160.181, 483.789 156.008 C 480.273 149.109, 473.931 145.746, 468 147.636 M 444.855 148.467 C 443.694 149.648, 428.670 154.993, 421 156.953 C 416.875 158.007, 406.300 160.124, 397.500 161.658 C 383.421 164.113, 379.159 164.434, 362 164.338 C 336.741 164.196, 309.305 161.311, 287.377 156.492 C 285.497 156.079, 285.179 156.592, 284.598 160.973 C 283.661 168.035, 278.914 174.038, 272.715 176 L 267.976 177.500 268.031 281 C 268.063 341.369, 268.474 385.959, 269.016 388 C 269.633 390.324, 272.390 393.911, 277.222 398.674 C 284.064 405.419, 318.336 436.028, 318.641 435.667 C 318.790 435.490, 317.247 424.599, 314.508 406.500 C 312.525 393.394, 303.665 356.684, 301.515 352.669 C 299.675 349.231, 299.559 346.090, 301.250 345.503 C 301.938 345.265, 304.493 344.888, 306.930 344.667 C 310.705 344.324, 311.103 344.452, 309.620 345.536 C 308.658 346.239, 308.311 347.074, 308.842 347.403 C 310.699 348.550, 344.610 355.911, 355 357.421 C 371.535 359.826, 374.710 359.606, 398 354.443 C 402.125 353.529, 407.075 352.430, 409 352.003 C 419.158 349.745, 426.746 347.715, 429.812 346.434 C 436.916 343.466, 443.170 346.001, 438.377 349.906 C 437.057 350.981, 435.512 355.242, 433.630 363 C 432.096 369.325, 429.954 377.549, 428.871 381.275 C 427.787 385.001, 426.277 393.326, 425.515 399.775 C 424.753 406.224, 423.163 418.136, 421.981 426.247 C 420.799 434.358, 419.995 441.485, 420.195 442.084 C 420.394 442.683, 423.886 439.422, 427.954 434.837 C 432.022 430.252, 438.586 423.350, 442.541 419.500 C 449.816 412.419, 460.497 400.416, 465.231 394 L 467.813 390.500 468.544 285.406 L 469.274 180.311 464.610 178.053 C 459.014 175.345, 456.059 171.658, 452.584 163.054 C 451.153 159.509, 449.125 155.684, 448.078 154.554 C 447.032 153.424, 446.023 151.445, 445.838 150.155 C 445.652 148.865, 445.210 148.106, 444.855 148.467 M 254.667 168.667 C 253.627 169.706, 253.866 263, 254.908 263 C 255.408 263, 257.095 265.024, 258.658 267.498 C 260.221 269.972, 261.766 271.997, 262.091 271.998 C 262.416 271.999, 262.785 250.683, 262.912 224.630 L 263.141 177.259 259.878 172.630 C 256.597 167.974, 255.894 167.440, 254.667 168.667 M 406.250 239.519 C 403.162 241.707, 403.147 247.289, 406.223 249.443 C 408.047 250.722, 411.893 251, 427.723 251 C 445.667 251, 447.138 250.862, 449 249 C 450.100 247.900, 451 246.100, 451 245 C 451 243.900, 450.100 242.100, 449 241 C 447.156 239.156, 445.657 238.999, 429.750 238.986 C 420.262 238.979, 411.600 238.737, 410.500 238.448 C 409.400 238.160, 407.488 238.642, 406.250 239.519 M 287.557 241.223 C 285.462 244.214, 285.597 246.597, 288 249 C 289.880 250.880, 291.333 251, 312.309 251 C 336.973 251, 338.333 250.697, 338.333 245.195 C 338.333 239.049, 338.129 239, 312.434 239 C 289.469 239, 289.090 239.034, 287.557 241.223 M 291 245 C 291 245.636, 298.833 246, 312.500 246 C 326.167 246, 334 245.636, 334 245 C 334 244.364, 326.167 244, 312.500 244 C 298.833 244, 291 244.364, 291 245 M 409.500 245 C 409.874 245.605, 417.010 246, 427.559 246 C 438.520 246, 445 245.628, 445 245 C 445 244.370, 438.314 244, 426.941 244 C 415.156 244, 409.097 244.347, 409.500 245 M 319.500 263.922 C 310.763 264.483, 310.500 264.572, 310.500 266.960 C 310.500 269.413, 310.522 269.419, 319.588 269.132 L 328.677 268.844 328.225 271.922 C 327.784 274.922, 327.637 275, 322.387 275 C 317.308 275, 317 275.143, 317 277.500 C 317 279.819, 317.347 280, 321.800 280 C 324.440 280, 327.092 280.492, 327.693 281.093 C 328.483 281.883, 329.380 281.867, 330.932 281.036 C 332.900 279.983, 333.055 279.205, 332.790 271.694 C 332.456 262.265, 333.728 263.009, 319.500 263.922 M 407.736 271.338 C 407.348 277.527, 407.564 279.858, 408.629 280.980 C 409.770 282.184, 410.401 282.231, 412.003 281.230 C 413.086 280.554, 416.034 280, 418.553 280 C 422.959 280, 423.121 279.896, 422.816 277.250 C 422.522 274.687, 422.182 274.500, 417.825 274.500 C 413.489 274.500, 413.121 274.301, 412.748 271.750 L 412.346 269 421.173 269 C 429.379 269, 430 268.857, 430 266.969 C 430 264.399, 429.510 264.265, 417.873 263.669 L 408.247 263.175 407.736 271.338 M 242.509 268.171 C 238.533 271.299, 236.048 277.481, 236.022 284.309 C 235.997 290.863, 237.394 291.190, 238.405 284.868 C 239.340 279.024, 245.365 273, 250.275 273 C 254.133 273, 256.292 275.651, 253.233 276.632 C 245.375 279.152, 243.745 280.562, 241.797 286.526 C 241.047 288.826, 239.580 290.904, 238.317 291.458 C 235.539 292.678, 235.986 295.570, 240.601 306.240 C 243.319 312.524, 244.041 315.673, 244.441 322.974 C 244.980 332.832, 246.382 336.112, 251.099 338.551 C 254.094 340.100, 257.095 340.349, 260.800 339.357 L 263.100 338.740 262.911 310.620 L 262.721 282.500 259.790 277.803 C 256.241 272.115, 249.683 266, 247.132 266 C 246.108 266, 244.027 266.977, 242.509 268.171 M 484.258 268.436 C 482.666 269.776, 479.741 273.500, 477.759 276.712 L 474.154 282.552 473.990 310.026 C 473.900 325.137, 473.865 338.063, 473.913 338.750 C 474.036 340.522, 481.434 340.344, 485.033 338.483 C 489.424 336.212, 491.280 331.693, 492.005 321.500 C 492.510 314.395, 493.344 310.924, 495.962 305.016 C 498.620 299.017, 499.376 295.814, 499.771 288.878 C 500.433 277.279, 499.628 273.695, 495.419 269.485 C 491.282 265.349, 488.264 265.065, 484.258 268.436 M 482.380 274.452 C 481.620 276.432, 482.745 278, 484.924 278 C 488.208 278, 491.787 281.778, 492.500 285.999 C 493.229 290.313, 494.569 291.831, 496.206 290.194 C 497.884 288.516, 495.184 279.409, 491.999 275.999 C 488.922 272.705, 483.392 271.816, 482.380 274.452 M 378.607 280.582 C 377.407 283.710, 377.933 318.533, 379.200 319.800 C 382.648 323.248, 383 321.471, 383 300.607 C 383 282.934, 382.789 280.133, 381.418 279.607 C 379.283 278.788, 379.297 278.783, 378.607 280.582 M 248.362 298.500 C 247.274 301.333, 248.807 303, 252.500 303 C 256.438 303, 258.028 300.943, 255.989 298.487 C 254.378 296.545, 249.108 296.554, 248.362 298.500 M 479.669 298.814 C 477.429 301.289, 479.257 303, 484.141 303 C 488.642 303, 489.815 301.558, 487.443 298.937 C 485.241 296.504, 481.808 296.450, 479.669 298.814 M 348.417 319.355 C 348.131 320.101, 348.033 323.588, 348.199 327.105 C 348.463 332.710, 348.747 333.507, 350.500 333.556 C 351.600 333.587, 353.522 334.171, 354.771 334.853 C 356.020 335.535, 357.444 335.844, 357.935 335.540 C 358.427 335.236, 358.995 335.484, 359.197 336.092 C 359.400 336.699, 360.649 337.039, 361.973 336.848 C 364.218 336.524, 364.098 336.313, 360.212 333.750 C 355.859 330.879, 352.184 329.892, 355.559 332.500 C 357.404 333.927, 357.378 333.958, 355.027 333.146 C 352.831 332.387, 352.589 331.804, 352.869 327.939 C 353.049 325.445, 353.854 323.096, 354.754 322.438 C 357.200 320.649, 355.556 318, 352 318 C 350.315 318, 348.703 318.610, 348.417 319.355 M 387.911 318.677 C 387.862 319.130, 387.892 321.575, 387.978 324.112 C 388.079 327.102, 387.593 329.264, 386.596 330.261 C 385.213 331.644, 385.322 331.864, 387.674 332.454 C 391.432 333.397, 392.141 332.101, 391.802 324.908 C 391.559 319.763, 391.159 318.455, 389.750 318.187 C 388.788 318.003, 387.960 318.224, 387.911 318.677 M 447.517 339.750 C 447.919 340.712, 448.561 342.850, 448.945 344.500 C 449.583 347.244, 449.703 347.318, 450.352 345.365 C 451.111 343.082, 449.304 338, 447.732 338 C 447.212 338, 447.115 338.788, 447.517 339.750 M 412.500 357.038 C 405.900 358.597, 393.984 361.058, 386.019 362.507 L 371.538 365.140 357.019 362.994 C 349.034 361.813, 337.775 359.806, 332 358.532 C 326.225 357.259, 319.523 355.893, 317.107 355.497 L 312.715 354.776 313.244 359.475 C 313.536 362.059, 314.168 364.568, 314.649 365.049 C 315.709 366.109, 342.990 373.051, 359.312 376.414 L 371.124 378.849 394.779 372.930 C 423.790 365.672, 424.997 365.282, 425.011 363.172 C 425.017 362.253, 425.301 359.813, 425.642 357.750 C 425.983 355.688, 425.865 354.046, 425.381 354.101 C 424.896 354.157, 419.100 355.479, 412.500 357.038 M 446.600 356.600 C 446.244 357.527, 446.178 358.511, 446.453 358.786 C 446.728 359.061, 447.244 358.527, 447.600 357.600 C 447.956 356.673, 448.022 355.689, 447.747 355.414 C 447.472 355.139, 446.956 355.673, 446.600 356.600 M 397.500 377.555 C 384.300 381.032, 372.338 383.905, 370.917 383.939 C 367.885 384.011, 341.447 378.150, 328.500 374.537 C 317.167 371.374, 316 371.356, 316 374.343 C 316 376.464, 317.212 377.077, 328.750 380.791 C 335.762 383.049, 347.011 386.253, 353.746 387.911 C 360.482 389.569, 366.882 391.401, 367.968 391.983 C 369.463 392.783, 371.402 392.549, 375.940 391.020 C 379.238 389.909, 383.360 389, 385.100 389 C 386.839 389, 392.335 387.602, 397.313 385.893 C 404.378 383.467, 407.255 382.934, 410.431 383.461 C 418.173 384.747, 418.304 384.708, 420.586 380.500 C 423.457 375.205, 424.444 370.963, 422.769 371.116 C 422.071 371.180, 410.700 374.077, 397.500 377.555 M 318 383.809 C 318 385.231, 325.037 396.396, 327.817 399.384 C 331.431 403.269, 338.915 408, 341.446 407.999 C 342.576 407.999, 346.425 406.580, 350 404.847 C 355.468 402.196, 357.982 401.621, 365.836 401.225 C 372.276 400.900, 375.907 401.147, 377.541 402.022 C 379.526 403.084, 380.315 403.023, 382.419 401.645 C 386.001 399.298, 388.951 399.589, 396.160 402.999 C 399.647 404.649, 403.572 405.999, 404.882 405.999 C 409.665 406.001, 418 398.778, 418 394.632 C 418 392.535, 411.160 387.998, 408.018 388.010 C 406.633 388.015, 403.025 389.176, 400 390.589 C 396.509 392.220, 391.518 393.469, 386.337 394.009 C 381.847 394.477, 376.807 395.566, 375.136 396.430 C 371.409 398.357, 368.725 398.415, 365.200 396.642 C 363.715 395.895, 358.225 394.246, 353 392.979 C 347.775 391.711, 338.346 388.947, 332.047 386.837 C 320.289 382.898, 318 382.405, 318 383.809 M 295 464.694 C 295 500.466, 294.780 506.870, 293.485 508.718 C 292.652 509.907, 287.496 513.267, 282.027 516.183 C 270.512 522.325, 270.770 521.393, 276.953 534.500 C 291.182 564.663, 322.585 585.068, 360.500 588.787 C 371.119 589.829, 372.675 589.741, 386 587.356 C 416.445 581.907, 443.192 566.333, 456.983 546.026 C 461.909 538.772, 465.924 530.969, 467.533 525.522 L 468.708 521.545 458.743 516.068 C 453.263 513.056, 448.041 509.461, 447.139 508.078 C 445.679 505.840, 445.528 501.271, 445.754 466.283 C 445.996 429.036, 445.916 427, 444.210 427 C 443.178 427, 438.005 431.928, 432.075 438.561 C 425.026 446.445, 420.270 450.856, 417.119 452.433 C 414.579 453.705, 406.650 457.741, 399.500 461.403 C 386.348 468.139, 375.976 472.011, 371.145 471.987 C 361.609 471.941, 333.327 457.397, 323.500 447.486 C 317.742 441.678, 297.320 423.663, 295.932 423.167 C 295.365 422.964, 295 439.247, 295 464.694 M 359.012 426.794 C 359.028 427.698, 365.638 432, 367.011 432 C 367.582 432, 368.491 433.162, 369.031 434.581 C 370.071 437.317, 372.591 437.393, 372.368 434.681 C 372.287 433.701, 373.494 432.662, 375.471 432.010 C 377.250 431.422, 379.785 429.731, 381.103 428.251 C 382.421 426.771, 382.764 426.121, 381.865 426.807 C 379.130 428.893, 368.083 429.381, 363.250 427.629 C 360.913 426.782, 359.006 426.406, 359.012 426.794 M 390.676 428.402 C 390.380 429.173, 390.403 430.070, 390.727 430.394 C 391.432 431.099, 394 429.125, 394 427.878 C 394 426.447, 391.260 426.879, 390.676 428.402" stroke="none" fill="black" fill-rule="evenodd"/>
	<path fill-opacity="0.618" d="M 308.008 87.392 C 306.414 88.986, 306.792 90.369, 309.972 94.572 C 311.607 96.732, 312.957 99.018, 312.972 99.650 C 312.987 100.283, 310.637 101.358, 307.750 102.039 C 297.127 104.544, 273.312 113.278, 266.985 116.989 C 259.723 121.248, 250.625 130.255, 248.549 135.239 C 245.130 143.446, 245.810 153.115, 250.242 159.339 C 252.177 162.058, 252.197 162.365, 250.638 165.632 C 249.194 168.660, 249 174.508, 249 214.923 L 249 260.777 245.529 261.428 C 237.414 262.951, 230.988 272.922, 231.017 283.946 C 231.039 292.084, 233.077 301.790, 236.279 309 C 238.061 313.014, 238.857 316.941, 239.223 323.533 C 239.523 328.941, 240.367 333.809, 241.326 335.664 C 244.835 342.449, 252.021 345.969, 259.500 344.566 L 263 343.909 263.006 365.205 C 263.009 377.097, 263.478 388.183, 264.069 390.311 C 264.871 393.197, 268.215 397.203, 277.843 406.811 L 290.558 419.500 290.330 461.895 C 290.205 485.212, 289.890 504.844, 289.630 505.521 C 288.878 507.482, 271.665 516.494, 271.220 515.160 C 270.590 513.269, 267.790 513.831, 265.055 516.396 C 262.404 518.883, 251.106 524.815, 230.500 534.540 C 169.953 563.116, 168.331 563.920, 156 571.438 C 126.227 589.591, 110.279 610.698, 95.505 651.500 C 88.599 670.576, 86.843 678.048, 86.259 690.848 C 85.774 701.468, 85.859 702.174, 87.577 701.843 C 89.777 701.419, 90.766 698.294, 90.900 691.338 C 91.265 672.439, 106.117 632.564, 121.009 610.500 C 127.498 600.885, 133.759 594.139, 143.355 586.424 C 155.711 576.490, 166.920 570.324, 210 549.769 C 256.663 527.503, 255.117 528.258, 261.344 524.705 C 264.038 523.167, 266.352 522.042, 266.486 522.205 C 266.621 522.367, 267.516 524.975, 268.475 528 C 275.604 550.470, 295.824 572.338, 319.324 582.993 C 353.757 598.604, 388.565 597.710, 423.873 580.308 C 447.070 568.876, 464.409 550.373, 472.116 528.829 C 473.853 523.973, 475.371 520, 475.489 520 C 475.608 520, 480.384 522.207, 486.103 524.904 C 491.821 527.602, 501.675 532.052, 508 534.793 C 514.325 537.534, 525.350 542.340, 532.500 545.473 C 553.819 554.815, 566.005 560.023, 573.676 563.070 C 583.529 566.984, 611.238 580.884, 618 585.305 C 628.672 592.282, 635.220 597.560, 639.953 603 C 658.837 624.705, 675.846 667.805, 675.965 694.250 C 675.998 701.496, 676.140 702, 678.144 702 C 680.252 702, 680.278 701.792, 679.729 689.250 C 679.152 676.090, 677.991 670.869, 670.892 649.500 C 666.868 637.386, 658.248 619.632, 652.009 610.607 C 645.097 600.608, 634.739 590.404, 624.225 583.235 C 615.739 577.450, 592.692 565.739, 576.500 558.984 C 572.100 557.149, 559.275 551.615, 548 546.686 C 536.725 541.757, 517.150 533.263, 504.500 527.811 C 491.850 522.358, 480.012 517.020, 478.193 515.949 C 474.395 513.711, 472.709 513.540, 470.155 515.135 C 468.659 516.069, 467.115 515.549, 461.419 512.189 C 457.614 509.945, 453.600 507.459, 452.500 506.666 C 450.557 505.264, 450.500 504.075, 450.500 465.269 C 450.500 436.046, 450.183 424.933, 449.320 423.890 C 448.361 422.731, 450.093 420.218, 458.558 410.482 C 473.607 393.172, 473 394.996, 473 367.105 L 473 343.841 476.022 344.505 C 483.694 346.190, 492.688 341.505, 494.953 334.643 C 495.544 332.851, 496.201 327.811, 496.414 323.443 C 496.707 317.395, 497.524 313.828, 499.835 308.493 C 502.946 301.317, 505.998 288.906, 505.999 283.432 C 506.002 273.985, 499.049 263.060, 492.156 261.681 L 489 261.050 488.822 234.775 C 488.549 194.345, 488.655 190.501, 490.126 187.880 C 491.054 186.227, 491.467 181.376, 491.481 172 C 491.498 160.050, 491.252 158.041, 489.342 154.500 C 485.345 147.094, 477.893 142, 471.055 142 C 469.400 142, 465.057 143.125, 461.404 144.500 C 457.751 145.875, 454.304 147, 453.744 147 C 453.075 147, 453.001 144.688, 453.528 140.250 C 455.084 127.161, 454.584 120.852, 451.583 115.732 C 444.833 104.213, 436.155 99.802, 412 95.610 C 379.779 90.018, 310.830 84.570, 308.008 87.392 M 314 92.471 C 314 92.730, 315.412 94.944, 317.137 97.392 C 318.863 99.840, 320.043 102.441, 319.761 103.171 C 319.479 103.902, 314.805 105.570, 309.374 106.878 C 297.490 109.741, 280.514 115.702, 271.978 120.011 C 260.069 126.023, 251.001 137.273, 251.032 146 C 251.048 150.771, 254.363 157.777, 258.601 162 C 260.533 163.925, 263.373 167.044, 264.913 168.931 C 267.607 172.232, 267.832 172.312, 270.876 171.051 C 275.519 169.128, 278.775 164.705, 279.567 159.245 C 280.689 151.513, 281.455 150.678, 286.848 151.307 C 289.407 151.606, 296.450 152.795, 302.500 153.951 C 325.243 158.295, 346.221 160.230, 364.500 159.670 C 388.123 158.947, 418.309 153.385, 436.275 146.447 C 441.184 144.551, 445.795 143, 446.521 143 C 447.937 143, 448.548 140.758, 449.565 131.833 C 451.039 118.886, 442.974 108.446, 428.094 104.039 C 414.013 99.869, 379.341 95.190, 346.595 93.043 C 329.922 91.950, 314 91.670, 314 92.471 M 460.833 150.149 L 454.167 153.193 456.973 159.772 C 460.742 168.605, 464.147 172.664, 469.014 174.122 C 471.206 174.779, 473.102 175.358, 473.226 175.408 C 473.351 175.459, 473.688 197.495, 473.976 224.377 L 474.500 273.254 477.753 268.233 C 479.542 265.471, 481.679 262.953, 482.503 262.637 C 483.795 262.141, 484 257.002, 484 225.096 C 484 201.682, 484.385 187.117, 485.051 185.367 C 485.629 183.847, 486.183 177.405, 486.282 171.051 C 486.448 160.459, 486.260 159.143, 484.020 155.201 C 479.092 146.530, 472.099 145.007, 460.833 150.149 M 442.785 149.061 C 435.844 153.106, 408.952 159.615, 385 163.047 C 367.246 165.591, 327.308 163.447, 301 158.538 C 293.575 157.153, 286.969 156.015, 286.321 156.010 C 285.672 156.004, 284.614 158.541, 283.969 161.648 C 282.529 168.585, 277.307 174.781, 271.981 175.870 L 268.500 176.582 268.245 282.481 L 267.991 388.379 270.472 391.959 C 273.157 395.834, 284.279 406.316, 304 423.557 C 310.875 429.567, 317.092 435.163, 317.815 435.992 C 319.379 437.784, 319.079 434.152, 315.920 413 C 313.614 397.557, 303.417 354.483, 301.368 351.527 C 297.819 346.410, 301.494 343.726, 307.652 346.936 C 309.770 348.040, 315.930 349.854, 321.340 350.967 C 326.751 352.080, 333.725 353.646, 336.839 354.447 C 339.952 355.248, 349.007 356.849, 356.960 358.005 L 371.420 360.107 382.460 357.991 C 399.774 354.673, 423.982 349.004, 429.788 346.909 C 432.696 345.859, 435.972 345, 437.069 345 C 440.002 345, 440.709 347.945, 438.240 349.878 C 435.634 351.918, 426.714 385.846, 425.062 400 C 424.453 405.225, 423.087 415.575, 422.027 423 C 419.599 440.010, 419.229 444, 420.084 444 C 420.459 444, 423.359 440.962, 426.527 437.250 C 429.696 433.537, 438.705 423.846, 446.548 415.714 C 454.390 407.581, 462.425 398.578, 464.403 395.706 L 467.999 390.484 468.664 285.346 L 469.329 180.208 465.414 178.196 C 459.610 175.211, 456.435 171.331, 453.016 163.039 C 451.329 158.948, 449.022 154.737, 447.889 153.682 C 446.672 152.548, 446.030 150.993, 446.321 149.881 C 446.860 147.820, 445.468 147.497, 442.785 149.061 M 253.964 168.750 C 253.944 169.162, 253.907 190.244, 253.882 215.599 L 253.835 261.697 258.168 267.491 L 262.500 273.284 262.760 224.548 L 263.019 175.811 260.510 172.829 C 259.129 171.189, 258 169.431, 258 168.923 C 258 167.829, 254.016 167.658, 253.964 168.750 M 288.655 240.829 C 287.745 241.835, 287 244.096, 287 245.853 C 287 248.364, 287.550 249.259, 289.565 250.025 C 290.976 250.561, 301.551 251, 313.065 251 C 332.667 251, 334.127 250.873, 336 249 C 338.496 246.504, 338.571 242.827, 336.171 240.655 C 334.586 239.220, 331.409 239, 312.326 239 C 292.267 239, 290.163 239.163, 288.655 240.829 M 405.571 240.571 C 402.297 243.845, 404.388 249.306, 409.397 250.564 C 410.639 250.875, 419.849 250.988, 429.865 250.815 C 449.589 250.474, 449.953 250.365, 449.985 244.807 C 450.014 239.595, 447.591 239, 426.349 239 C 410.222 239, 406.891 239.252, 405.571 240.571 M 409.003 244.750 C 409.001 245.705, 413.365 246, 427.500 246 C 439.167 246, 446 245.631, 446 245 C 446 243.662, 446.004 243.662, 426.253 243.576 C 413.084 243.518, 409.006 243.796, 409.003 244.750 M 291 245 C 291 245.636, 298.833 246, 312.500 246 C 326.167 246, 334 245.636, 334 245 C 334 244.364, 326.167 244, 312.500 244 C 298.833 244, 291 244.364, 291 245 M 324 264.204 C 320.425 264.664, 316.328 264.831, 314.896 264.574 C 312.177 264.088, 310 265.478, 310 267.700 C 310 268.675, 312.372 269, 319.500 269 L 329 269 329 271.950 C 329 274.840, 328.883 274.906, 323.250 275.200 C 318.044 275.472, 317.468 275.727, 317.161 277.898 C 316.835 280.206, 316.996 280.272, 321.447 279.662 C 324.284 279.273, 326.781 279.470, 327.904 280.172 C 331.616 282.491, 333 280.604, 333 273.223 C 333 263.934, 332.215 263.147, 324 264.204 M 408.717 263.669 C 408.441 264.126, 408.054 268.100, 407.858 272.500 L 407.500 280.500 410.500 280.267 C 421.076 279.443, 423.119 278.842, 422.806 276.645 C 422.531 274.714, 421.976 274.532, 417.250 274.822 L 412 275.143 412 272.072 L 412 269 420.441 269 C 429.007 269, 430.489 268.437, 429.399 265.597 C 428.910 264.323, 427.394 264.061, 421.646 264.257 C 417.716 264.390, 413.312 264.126, 411.859 263.669 C 410.407 263.212, 408.992 263.212, 408.717 263.669 M 241.801 268.750 C 238.776 271.983, 236.492 276.314, 235.605 280.500 C 234.429 286.045, 236.770 298.740, 240.488 306.973 C 243.523 313.696, 244 315.794, 244 322.426 C 244 333.905, 248.180 340, 256.053 340 C 263.453 340, 263 341.922, 263 310.507 L 263 282.228 258.928 276.130 C 251.911 265.622, 246.792 263.416, 241.801 268.750 M 484.784 267.554 C 483.290 268.365, 480.851 271.160, 479.365 273.764 C 477.878 276.369, 476.082 279.189, 475.373 280.032 C 474.402 281.186, 474.012 288.707, 473.792 310.532 L 473.500 339.500 478.337 339.808 C 487.535 340.395, 491.225 335.766, 492.096 322.545 C 492.567 315.403, 493.368 311.963, 495.905 306.197 C 499.960 296.982, 501.838 283.711, 500.029 277.060 C 498.594 271.786, 493.233 265.982, 489.850 266.040 C 488.558 266.062, 486.278 266.743, 484.784 267.554 M 245.299 274.935 C 241.701 277.156, 239.496 280.837, 238.135 286.895 C 237.430 290.034, 237.512 291, 238.485 291 C 239.691 291, 241.059 288.350, 242.522 283.181 C 243.291 280.464, 248.494 277.009, 251.823 277.004 C 253.495 277.001, 254.054 276.509, 253.815 275.250 C 253.342 272.756, 249.084 272.599, 245.299 274.935 M 482.626 274.532 C 482.098 275.907, 485.287 278, 487.910 278 C 489.547 278, 491.981 281.756, 492.754 285.477 C 493.762 290.332, 496 291.418, 496 287.051 C 496 282.643, 493.707 277.702, 490.486 275.168 C 487.277 272.644, 483.469 272.336, 482.626 274.532 M 379 299.820 C 379 316.863, 379.225 319.872, 380.538 320.376 C 381.384 320.701, 382.294 320.398, 382.561 319.702 C 382.827 319.007, 382.923 309.908, 382.773 299.482 C 382.526 282.350, 382.332 280.493, 380.750 280.190 C 379.131 279.878, 379 281.343, 379 299.820 M 249.053 298.437 C 247.170 300.705, 248.517 303.002, 251.719 302.985 C 255.872 302.962, 257.756 301.470, 256.399 299.278 C 254.967 296.965, 250.682 296.474, 249.053 298.437 M 480.529 298.355 C 477.695 300.427, 479.256 303, 483.346 303 C 488.047 303, 489.853 300.711, 486.825 298.590 C 484.052 296.648, 482.922 296.605, 480.529 298.355 M 349.201 318.855 C 347.234 320.102, 347.965 333.500, 350 333.500 C 351.066 333.500, 351.588 332.199, 351.803 329 C 352.014 325.851, 352.737 324.013, 354.209 322.878 C 358.131 319.854, 353.496 316.130, 349.201 318.855 M 388 325.500 C 388 331.333, 388.205 332, 390 332 C 391.795 332, 392 331.333, 392 325.500 C 392 319.667, 391.795 319, 390 319 C 388.205 319, 388 319.667, 388 325.500 M 312.588 354.880 C 312.094 355.712, 313.531 364.864, 314.273 365.606 C 315.071 366.405, 355.980 376.462, 364.587 377.976 L 371.500 379.192 397.470 372.576 C 411.754 368.937, 423.803 365.597, 424.247 365.153 C 425.418 363.982, 426.442 353.999, 425.389 354.005 C 424.900 354.008, 419.325 355.131, 413 356.500 C 385.941 362.357, 369.406 365.369, 368.244 364.651 C 367.740 364.340, 362.417 363.368, 356.414 362.491 C 350.411 361.615, 339.875 359.733, 333 358.309 C 314.157 354.407, 312.987 354.211, 312.588 354.880 M 315.070 372.250 C 315.292 376.192, 316.935 377.267, 328.539 381.062 C 335.118 383.214, 345.450 386.176, 351.500 387.645 C 357.550 389.114, 364.324 391.091, 366.554 392.038 C 370.194 393.585, 370.898 393.609, 373.445 392.275 C 375.005 391.458, 379.930 390.155, 384.391 389.380 C 388.851 388.606, 395.980 386.793, 400.234 385.352 C 407.381 382.930, 408.323 382.830, 412.637 384.038 C 417.191 385.313, 417.363 385.279, 419.617 382.659 C 422.151 379.713, 424.730 372.397, 423.624 371.291 C 423.241 370.908, 420.132 371.377, 416.714 372.333 C 413.296 373.289, 403.975 375.625, 396 377.525 C 388.025 379.424, 379.250 381.681, 376.500 382.541 C 371.672 384.050, 371.001 383.997, 357 381.012 C 349.025 379.311, 336.622 376.363, 329.439 374.460 C 314.554 370.517, 314.977 370.582, 315.070 372.250 M 318 383.428 C 318 387.869, 327.841 400.917, 334.703 405.573 C 339.445 408.791, 343.178 408.632, 351 404.881 C 356.354 402.314, 359.086 401.681, 366.500 401.291 C 373.443 400.925, 375.945 401.153, 377.448 402.289 C 379.187 403.605, 379.813 403.544, 383.301 401.726 L 387.207 399.690 392.353 401.962 C 400 405.338, 404.304 406.392, 407.336 405.631 C 410.619 404.806, 417.580 398.713, 418.275 396.055 C 418.878 393.752, 415.896 390.700, 411.054 388.665 C 407.427 387.140, 404.249 387.754, 397.364 391.310 C 395.789 392.124, 390.675 393.261, 386 393.836 C 381.325 394.412, 375.963 395.655, 374.083 396.598 C 371.158 398.066, 370.224 398.128, 367.583 397.026 C 365.888 396.319, 359.100 394.303, 352.500 392.547 C 342.833 389.974, 326.486 384.910, 319.250 382.246 C 318.563 381.993, 318 382.525, 318 383.428 M 294.900 463.750 C 294.845 486.163, 294.494 505.625, 294.118 507 C 293.602 508.892, 290.805 510.936, 282.623 515.403 C 271.938 521.237, 271.818 521.342, 272.423 524.403 C 274.238 533.598, 286.576 552.765, 296.770 562.226 C 305.937 570.733, 320.792 579.284, 334.745 584.084 C 340.909 586.205, 353.877 588.548, 364.500 589.461 C 376.225 590.469, 397.385 586.375, 412.391 580.196 C 437.359 569.916, 454.962 554.243, 464.377 533.911 C 470.197 521.344, 470.297 521.826, 460.835 516.821 C 456.343 514.444, 451.167 511.097, 449.334 509.382 L 446 506.264 446 466.691 C 446 439.405, 445.664 426.911, 444.919 426.450 C 443.579 425.622, 439.888 429.046, 430.311 440 C 422.357 449.097, 417.620 452.218, 395.500 462.934 C 382.702 469.134, 377.074 471.002, 371.215 470.993 C 358.263 470.974, 336.254 458.835, 317.512 441.374 C 305.080 429.791, 297.065 423.027, 295.750 423.010 C 295.337 423.004, 294.955 441.337, 294.900 463.750 M 381.500 426.588 C 379.975 427.750, 377.479 428.031, 371 427.771 C 366.325 427.583, 361.712 427.060, 360.750 426.608 C 359.642 426.088, 359 426.192, 359 426.893 C 359 427.502, 361.244 429.238, 363.986 430.750 C 366.998 432.412, 368.977 434.193, 368.986 435.250 C 369.003 437.394, 371.309 437.538, 373 435.500 C 374 434.296, 373.985 434, 372.926 434 C 372.201 434, 373.833 432.888, 376.554 431.530 C 379.274 430.171, 382.066 428.146, 382.758 427.030 C 384.249 424.626, 384.129 424.584, 381.500 426.588 M 391.200 427.200 C 389.409 428.991, 389.744 431.195, 391.750 430.813 C 392.712 430.630, 393.644 429.472, 393.820 428.240 C 394.171 425.778, 393.062 425.338, 391.200 427.200" stroke="none" fill="black" fill-rule="evenodd"/>
	<path fill-opacity="0.981" d="M 307.743 88.226 C 307.409 89.099, 308.664 91.998, 310.661 94.963 C 312.589 97.825, 314.016 100.292, 313.833 100.445 C 313.650 100.598, 308.557 102.167, 302.517 103.933 C 277.181 111.336, 264.760 117.141, 256.464 125.454 C 249.991 131.941, 247.698 136.836, 247.185 145.261 C 246.829 151.103, 247.139 152.747, 249.468 157.349 C 252.074 162.501, 252.111 162.799, 250.581 166.460 C 249.219 169.721, 249 176.500, 249 215.497 L 249 260.750 246.082 261.334 C 242.209 262.108, 236.374 267.347, 233.830 272.333 C 229.658 280.512, 230.685 293.926, 236.610 308.635 C 238.590 313.550, 239.549 318.073, 239.988 324.558 C 240.732 335.568, 242.922 339.816, 249.494 342.997 C 252.927 344.659, 254.894 344.988, 258.322 344.474 C 263.808 343.652, 263.489 342.246, 263.886 369 C 264.094 383.015, 264.601 390.449, 265.491 392.500 C 266.207 394.150, 272.239 400.893, 278.896 407.484 L 291 419.469 291 462.043 C 291 494.615, 290.706 504.980, 289.750 506.158 C 289.063 507.005, 284.930 509.623, 280.567 511.975 C 273.895 515.572, 272.333 516.064, 270.739 515.069 C 268.822 513.872, 267.223 514.532, 264.500 517.642 C 263.225 519.099, 250.978 525.274, 224.500 537.811 C 212.950 543.279, 199 549.893, 193.500 552.508 C 188 555.123, 181.090 558.344, 178.144 559.665 C 170.794 562.963, 158.245 570.214, 147.628 577.297 C 120.526 595.378, 102.183 625.430, 88.908 673.500 C 87.845 677.350, 86.688 685.113, 86.337 690.750 C 85.713 700.770, 85.747 701, 87.849 701 C 89.777 701, 90 700.455, 90.004 695.750 C 90.016 678.739, 99.874 647.777, 113.352 622.416 C 122.444 605.307, 130.147 596.531, 150.069 580.586 C 156.802 575.196, 174.845 565.868, 216 546.498 C 241.281 534.599, 254.129 528.303, 260.597 524.641 L 266.694 521.189 268.469 526.844 C 275.653 549.745, 294.474 570.501, 318.496 582.014 C 340.261 592.446, 365.324 596.312, 386.140 592.448 C 416.169 586.874, 443.851 571.768, 457.510 553.501 C 459.154 551.301, 461.186 548.738, 462.025 547.804 C 464.651 544.880, 468.978 536.165, 472.133 527.446 L 475.168 519.059 482.301 522.652 C 490.494 526.778, 515.141 537.666, 549 552.117 C 561.925 557.634, 575.200 563.303, 578.500 564.716 C 591.289 570.189, 611.904 580.910, 620.500 586.557 C 642.876 601.256, 657.624 622.728, 668.953 657.101 C 673.905 672.127, 676 682.799, 676 693.003 C 676 700.440, 676.621 702, 679.582 702 C 680.602 702, 679.864 684.464, 678.556 677.630 C 674.690 657.422, 663.177 628.426, 652.498 612 C 646.138 602.216, 633.675 589.913, 622.876 582.756 C 613.641 576.636, 589.629 564.693, 572.187 557.546 C 556.622 551.168, 554.237 550.149, 546.500 546.570 C 542.650 544.790, 537.925 542.732, 536 541.999 C 534.075 541.265, 532.050 540.340, 531.500 539.942 C 530.950 539.545, 526.450 537.553, 521.500 535.516 C 516.550 533.479, 510.700 531.010, 508.500 530.029 C 506.300 529.048, 499.550 526.116, 493.500 523.514 C 487.450 520.911, 480.397 517.611, 477.827 516.181 C 473.619 513.839, 472.899 513.716, 470.600 514.947 C 468.247 516.206, 467.582 516.026, 462.123 512.657 C 458.864 510.645, 455.789 509, 455.288 509 C 454.787 509, 453.392 508.082, 452.189 506.961 C 450.007 504.929, 450 504.791, 450 464.661 C 450 433.930, 449.706 424.106, 448.758 423.158 C 447.966 422.366, 447.875 421.661, 448.508 421.208 C 449.054 420.819, 451.963 417.575, 454.974 414 C 457.984 410.425, 460.691 407.275, 460.988 407 C 464.102 404.116, 470.550 395.116, 471.591 392.200 C 472.529 389.574, 472.925 382.072, 472.956 366.346 L 473 344.192 478.762 344.325 C 490.130 344.586, 495.992 337.656, 496.010 323.934 C 496.017 318.067, 496.560 315.341, 498.582 311 C 504.569 298.152, 506.676 280.214, 503.104 272.500 C 500.687 267.278, 495.996 262.951, 491.831 262.099 L 488.500 261.419 488.237 225.693 C 488.001 193.510, 488.143 189.712, 489.671 187.380 C 491.779 184.162, 492.189 163.745, 490.271 157.500 C 487.576 148.723, 476.795 141.065, 469.154 142.499 C 467.151 142.875, 462.837 144.269, 459.569 145.597 C 452.667 148.402, 451.626 147.800, 452.478 141.500 C 454.036 129.996, 454.159 124.639, 452.964 120.372 C 451.370 114.678, 443.999 106.406, 437.242 102.728 C 425.725 96.460, 371.429 88.887, 326.916 87.340 C 310.752 86.779, 308.255 86.894, 307.743 88.226 M 314 92.096 C 314 92.698, 314.889 94.439, 315.975 95.965 C 317.061 97.491, 318.384 99.881, 318.915 101.276 C 319.863 103.769, 319.752 103.844, 312.690 105.531 C 300.876 108.352, 278.969 115.943, 271.750 119.718 C 254.528 128.723, 247.217 142.207, 252.890 154.500 C 253.905 156.700, 255.968 159.625, 257.474 161 C 258.980 162.375, 261.536 165.412, 263.154 167.750 C 266.501 172.585, 268.598 173.030, 273.564 169.960 C 276.981 167.849, 279.285 163.104, 280.491 155.697 C 280.832 153.606, 281.784 151.637, 282.606 151.321 C 283.429 151.005, 287.792 151.474, 292.301 152.364 C 328.682 159.539, 360.775 161.881, 382.654 158.958 C 397.381 156.991, 425.484 150.781, 434.636 147.472 C 439.661 145.655, 444.836 144.018, 446.136 143.835 C 448.096 143.557, 448.615 142.731, 449.176 139 C 449.548 136.525, 449.885 132.001, 449.926 128.946 C 450.074 117.877, 442.892 109.002, 429.911 104.211 C 417.912 99.783, 381.902 95.030, 341 92.477 C 312.817 90.717, 314 90.734, 314 92.096 M 465.500 147.877 C 460.137 149.813, 454 152.792, 454 153.460 C 454 153.684, 455.200 156.710, 456.667 160.184 C 460.462 169.169, 463.265 172.588, 468.178 174.226 C 471.431 175.310, 472.585 176.299, 473.241 178.565 C 473.709 180.179, 473.877 202.087, 473.614 227.250 C 473.341 253.421, 473.515 273, 474.020 273 C 474.506 273, 476.238 271.062, 477.868 268.692 C 479.498 266.323, 481.544 263.793, 482.416 263.070 C 483.808 261.915, 484.001 257.368, 484.011 225.628 C 484.020 196.519, 484.311 188.546, 485.511 184.591 C 487.694 177.394, 487.469 161.611, 485.110 156.500 C 482.974 151.872, 479.688 148.583, 475.685 147.067 C 472.036 145.684, 471.444 145.731, 465.500 147.877 M 437.732 150.646 C 424.641 156.138, 396.622 161.738, 373 163.583 C 359.047 164.672, 318.529 161.435, 297.500 157.551 C 283.773 155.015, 284.866 154.745, 283.567 161 C 281.765 169.678, 278.172 173.857, 270.880 175.755 L 267.500 176.636 267.790 215.068 C 267.950 236.205, 268.062 284.316, 268.040 321.980 L 268 390.461 278.250 400.520 C 287.284 409.386, 319.222 438.004, 319.670 437.634 C 319.763 437.557, 318.312 427.371, 316.446 414.997 C 314.358 401.151, 311.276 385.770, 308.432 375 C 305.890 365.375, 303.569 356.375, 303.275 355 C 302.980 353.625, 302.068 351.729, 301.248 350.787 C 297.814 346.841, 302.375 344.591, 307.956 347.477 C 312.929 350.049, 351.457 358.057, 365.658 359.472 C 370.031 359.907, 375.090 359.737, 378.658 359.034 C 381.871 358.401, 386.975 357.402, 390 356.814 C 402.050 354.471, 421.922 349.725, 429.334 347.421 C 433.643 346.082, 437.580 345.240, 438.084 345.552 C 439.501 346.428, 439.167 348.807, 437.496 349.742 C 436.596 350.246, 434.771 355.589, 432.954 363.042 C 431.283 369.894, 429.020 378.409, 427.924 381.965 C 426.829 385.521, 425.281 394.071, 424.486 400.965 C 423.690 407.859, 422.392 417.775, 421.602 423 C 420.811 428.225, 419.875 435.425, 419.521 439 L 418.877 445.500 424.071 440 C 426.927 436.975, 433.626 430, 438.956 424.500 C 450.229 412.869, 462.541 399.008, 466.049 394 L 468.500 390.500 468.682 336 C 468.782 306.025, 469.109 259, 469.409 231.500 C 469.710 204, 469.628 181.028, 469.228 180.452 C 468.827 179.876, 466.374 178.176, 463.777 176.675 C 458.823 173.814, 455.672 169.376, 452.503 160.799 C 451.547 158.213, 449.918 155.331, 448.883 154.394 C 447.847 153.457, 447 151.635, 447 150.345 C 447 147.397, 445.350 147.451, 437.732 150.646 M 253.607 168.582 C 252.537 171.369, 252.909 263, 253.990 263 C 254.534 263, 256.672 265.556, 258.740 268.680 L 262.500 274.360 263.049 269.430 C 264.110 259.896, 264.130 175, 263.071 175 C 262.515 175, 261.034 173.203, 259.780 171.008 C 257.429 166.891, 254.672 165.807, 253.607 168.582 M 488.195 171.500 C 488.215 173.150, 488.439 173.704, 488.693 172.731 C 488.947 171.758, 488.930 170.408, 488.656 169.731 C 488.382 169.054, 488.175 169.850, 488.195 171.500 M 289.155 240.604 C 287.463 241.789, 286.965 242.987, 287.194 245.323 C 287.715 250.654, 289.880 251.108, 313.222 250.777 C 335.880 250.456, 337.250 250.099, 337.250 244.514 C 337.250 239.711, 336.359 239.516, 313.163 239.258 C 294.651 239.051, 291.087 239.251, 289.155 240.604 M 405.585 241.183 C 403.561 244.072, 403.591 245.283, 405.750 247.897 C 407.385 249.877, 408.712 250.050, 426 250.544 C 446.430 251.127, 449.253 250.570, 449.805 245.843 C 450.017 244.032, 449.366 242.647, 447.683 241.323 C 445.516 239.618, 443.216 239.387, 426.213 239.167 C 407.434 238.924, 407.147 238.952, 405.585 241.183 M 290.651 244.468 C 290.341 245.275, 290.405 246.122, 290.794 246.349 C 292.064 247.091, 310.234 247.133, 322.760 246.423 C 332.950 245.845, 334.828 245.498, 333.887 244.364 C 332.155 242.277, 291.454 242.375, 290.651 244.468 M 408.584 243.864 C 406.998 246.430, 411.302 247.094, 428.462 246.929 C 444.170 246.778, 446.066 246.581, 445.787 245.130 C 445.514 243.707, 443.167 243.465, 427.310 243.228 C 417.162 243.076, 408.898 243.357, 408.584 243.864 M 319.531 264.747 C 312.009 265.073, 309.351 266.140, 310.685 268.299 C 310.996 268.803, 315.117 268.887, 320.119 268.491 L 329 267.788 329 271.344 L 329 274.900 323.260 275.200 C 318.732 275.437, 317.449 275.870, 317.186 277.250 C 316.901 278.747, 317.659 279, 322.427 279 C 325.729 279, 328 279.437, 328 280.073 C 328 280.664, 328.755 281.001, 329.678 280.823 C 331.939 280.388, 332.800 276.639, 332.228 269.732 C 331.804 264.619, 331.523 264.022, 329.626 264.201 C 328.457 264.312, 323.914 264.558, 319.531 264.747 M 407.797 271.133 C 407.349 279.910, 408.452 282.027, 412.510 280.177 C 413.931 279.530, 416.873 279, 419.047 279 C 422.333 279, 423 278.663, 423 277 C 423 275.242, 422.333 275, 417.500 275 L 412 275 412 271.500 L 412 268 420.500 268 C 427.389 268, 429 267.716, 429 266.500 C 429 265.316, 427.578 264.998, 422.250 264.989 C 418.538 264.983, 413.851 264.705, 411.837 264.372 L 408.173 263.766 407.797 271.133 M 243.287 266.972 C 241.524 268.044, 239.050 270.852, 237.790 273.211 C 235.809 276.921, 235.523 278.805, 235.673 287.163 C 235.830 295.918, 236.191 297.608, 239.524 305.163 C 242.593 312.119, 243.310 315.081, 243.854 323.048 C 244.599 333.959, 246.188 337.345, 251.630 339.619 C 255.183 341.103, 261.475 340.658, 262.597 338.843 C 262.914 338.331, 263.122 325.219, 263.060 309.706 L 262.947 281.500 259.494 276.457 C 255.447 270.546, 251.306 266.467, 248.497 265.623 C 247.327 265.272, 245.160 265.833, 243.287 266.972 M 486.430 266.478 C 482.946 267.963, 481.588 269.522, 476.699 277.651 L 473 283.801 473 311.855 L 473 339.909 476.250 340.515 C 481.025 341.405, 487.054 339.054, 489.564 335.323 C 491.176 332.927, 491.874 329.867, 492.402 322.875 C 492.925 315.943, 493.828 311.949, 495.979 307.049 C 499.479 299.074, 501.375 288.855, 500.808 281.019 C 500.047 270.502, 493.211 263.588, 486.430 266.478 M 247.418 273.969 C 243.043 275.739, 238.029 284.211, 238.006 289.872 C 237.995 292.546, 240.920 288.945, 241.569 285.486 C 242.388 281.119, 245.103 278.349, 250.002 276.881 C 254.250 275.609, 254.997 274.596, 252.418 273.607 C 250.493 272.868, 250.062 272.899, 247.418 273.969 M 483 274.875 C 483 276.141, 483.935 276.937, 485.879 277.326 C 489.835 278.117, 491.812 280.370, 493.124 285.576 C 494.550 291.240, 496.494 291.490, 495.599 285.895 C 494.678 280.137, 492.457 276.288, 489.033 274.517 C 485.096 272.481, 483 272.606, 483 274.875 M 379 300 C 379 319.783, 379.023 320, 381.145 320 C 383.189 320, 383.259 319.683, 382.652 313.250 C 382.301 309.538, 382.011 300.538, 382.007 293.250 C 382.001 282.142, 381.758 280, 380.500 280 C 379.217 280, 379 282.889, 379 300 M 249.750 298.080 C 247.571 299.350, 247.483 301.588, 249.582 302.393 C 252.350 303.455, 253.248 303.056, 252.711 301.001 C 252.423 299.902, 252.596 298.750, 253.094 298.442 C 253.592 298.134, 254 299.060, 254 300.500 C 254 301.991, 254.431 302.852, 255 302.500 C 256.561 301.535, 256.174 298.281, 254.418 297.607 C 252.349 296.813, 251.837 296.865, 249.750 298.080 M 480.245 299.155 C 478.078 301.322, 478.870 302, 483.573 302 C 487.388 302, 488.092 301.710, 487.815 300.250 C 487.411 298.115, 482.059 297.341, 480.245 299.155 M 483 300 C 483 300.550, 483.450 301, 484 301 C 484.550 301, 485 300.550, 485 300 C 485 299.450, 484.550 299, 484 299 C 483.450 299, 483 299.450, 483 300 M 349.070 319.416 C 348.377 320.250, 348.019 323.222, 348.198 326.656 C 348.437 331.263, 348.866 332.550, 350.250 332.814 C 351.721 333.094, 352 332.377, 352 328.314 C 352 324.505, 352.440 323.206, 354.076 322.185 C 355.744 321.143, 355.916 320.604, 354.954 319.444 C 353.426 317.603, 350.585 317.590, 349.070 319.416 M 388 325.500 C 388 330.368, 388.347 332, 389.383 332 C 391.060 332, 391.968 328.947, 391.986 323.250 C 391.998 319.662, 391.688 319, 390 319 C 388.205 319, 388 319.667, 388 325.500 M 417 355.138 C 412.325 356.153, 404.675 357.857, 400 358.925 C 391.542 360.857, 372.407 364.311, 370.500 364.250 C 367.645 364.159, 340.480 359.594, 332.596 357.881 C 318.512 354.820, 312.845 353.822, 312.352 354.314 C 312.104 354.563, 312.208 357.085, 312.584 359.920 C 313.047 363.415, 313.860 365.390, 315.110 366.059 C 317.799 367.498, 365.618 379.051, 369.340 379.161 C 371.766 379.232, 408.041 370.568, 422.693 366.418 C 424.092 366.022, 425.088 364.747, 425.443 362.898 C 425.749 361.304, 426.251 358.693, 426.559 357.095 C 426.866 355.498, 426.753 353.988, 426.309 353.742 C 425.864 353.495, 421.675 354.123, 417 355.138 M 306.070 356.750 C 306.109 357.163, 306.527 358.400, 307 359.500 C 307.762 361.272, 307.867 361.187, 307.930 358.750 C 307.968 357.238, 307.550 356, 307 356 C 306.450 356, 306.032 356.337, 306.070 356.750 M 308.079 364.583 C 308.127 365.748, 308.364 365.985, 308.683 365.188 C 308.972 364.466, 308.936 363.603, 308.604 363.271 C 308.272 362.939, 308.036 363.529, 308.079 364.583 M 309.158 369 C 309.158 370.375, 309.385 370.938, 309.662 370.250 C 309.940 369.563, 309.940 368.438, 309.662 367.750 C 309.385 367.063, 309.158 367.625, 309.158 369 M 418 371.607 C 415.525 372.417, 404.950 375.192, 394.500 377.774 C 380.657 381.194, 373.736 382.430, 369 382.330 C 362.411 382.190, 343.179 378.129, 327.296 373.525 C 316.425 370.373, 314.996 370.341, 315.015 373.250 C 315.024 374.488, 315.361 375.985, 315.765 376.578 C 316.599 377.801, 341.948 385.769, 355.464 389.057 C 360.395 390.256, 365.835 391.907, 367.554 392.727 C 370.355 394.063, 371.006 394.049, 373.831 392.587 C 375.565 391.691, 380.792 390.293, 385.447 389.481 C 390.102 388.670, 396.459 387.052, 399.573 385.887 C 404.983 383.863, 407.183 383.773, 416.465 385.198 C 417.927 385.423, 419.138 384.219, 421.192 380.500 C 423.775 375.823, 424.940 369.916, 423.250 370.067 C 422.837 370.104, 420.475 370.797, 418 371.607 M 318.344 384.971 C 319.517 390.834, 328.160 402.082, 334.509 406.005 C 339.339 408.991, 343.758 408.770, 351.478 405.157 C 357.473 402.352, 359.222 402, 367.178 402 C 372.102 402, 377.010 402.470, 378.083 403.045 C 379.546 403.827, 380.587 403.702, 382.240 402.545 C 385.334 400.377, 388.904 400.617, 395.129 403.409 C 404.019 407.396, 405.943 407.473, 411.115 404.047 C 416.836 400.258, 420.016 394.929, 418.003 392.504 C 416.398 390.569, 409.701 387, 407.678 387 C 406.907 387, 403.402 388.288, 399.888 389.862 C 395.660 391.757, 391.074 392.919, 386.325 393.298 C 382.379 393.613, 377.789 394.575, 376.125 395.436 C 372.775 397.168, 366.925 397.515, 365.450 396.068 C 364.927 395.556, 359.100 393.771, 352.500 392.102 C 345.900 390.433, 335.799 387.477, 330.054 385.534 C 324.308 383.590, 319.189 382, 318.679 382 C 318.168 382, 318.017 383.337, 318.344 384.971 M 318.092 398.599 C 318.614 400.744, 319.929 407.675, 321.013 414 C 322.979 425.466, 325.969 441.415, 326.582 443.708 C 326.890 444.861, 328.902 446.257, 344.142 455.894 C 354.179 462.241, 365.527 466.626, 371.302 466.388 C 373.943 466.280, 377.318 465.890, 378.802 465.523 C 382.478 464.614, 397.920 456.751, 406.671 451.332 C 413.330 447.209, 413.890 446.591, 414.509 442.696 C 414.875 440.388, 416.232 432.425, 417.523 425 C 419.831 411.735, 421.082 401, 420.320 401 C 420.107 401, 418.308 402.625, 416.322 404.612 C 412.538 408.396, 407.507 411, 403.982 411 C 402.836 411, 398.341 409.594, 393.993 407.876 C 388.717 405.791, 385.492 405.022, 384.294 405.565 C 383.307 406.011, 377.325 406.413, 371 406.458 C 360.438 406.533, 359.014 406.775, 353.547 409.436 C 350.273 411.029, 345.548 412.527, 343.047 412.764 C 339.017 413.147, 337.791 412.722, 332.262 409.024 C 328.832 406.729, 324.026 402.566, 321.584 399.774 L 317.142 394.697 318.092 398.599 M 379.987 412.552 C 377.116 414.142, 365.081 414.457, 360.243 413.070 C 357.765 412.359, 357 412.448, 357 413.447 C 357 416.112, 360.290 417.374, 368.335 417.796 C 377.182 418.260, 384 416.438, 384 413.610 C 384 411.357, 382.744 411.026, 379.987 412.552 M 294.607 423.582 C 294.273 424.452, 294 443.597, 294 466.127 L 294 507.091 291.750 509.325 C 290.512 510.554, 285.337 513.705, 280.250 516.327 C 275.163 518.949, 271 521.288, 271 521.524 C 271 521.761, 272.145 524.997, 273.545 528.717 C 283.580 555.376, 307.727 576.554, 338.138 585.367 C 360.716 591.910, 380.357 591.350, 404.483 583.474 C 417.785 579.132, 433.994 570.294, 444.154 561.845 C 452.758 554.689, 462.870 539.897, 467.420 527.810 L 469.930 521.140 459.312 515.327 C 450.786 510.658, 448.429 508.879, 447.347 506.289 C 446.297 503.774, 446 494.581, 446 464.532 C 446 428.237, 445.897 426, 444.218 426 C 443.211 426, 437.829 431.109, 431.842 437.750 L 421.247 449.500 402.874 458.717 C 392.768 463.786, 381.922 468.652, 378.772 469.531 C 372.568 471.262, 365.614 470.813, 360.800 468.370 C 359.314 467.617, 357.273 467, 356.264 467 C 353.205 467, 327.756 451.329, 324 447.133 C 319.838 442.483, 296.963 422, 295.932 422 C 295.537 422, 294.941 422.712, 294.607 423.582 M 383.500 426.222 C 382.400 427.951, 379.517 430.409, 377.093 431.683 C 374.669 432.957, 373.261 434, 373.965 434 C 374.989 434, 374.996 434.300, 374 435.500 C 372.311 437.535, 369.260 437.395, 368.579 435.250 C 368.274 434.287, 365.947 432.245, 363.408 430.712 C 360.870 429.179, 358.562 427.041, 358.280 425.962 C 357.665 423.610, 354.189 423.344, 353.330 425.583 C 352.611 427.455, 354.519 429.421, 361.862 434.380 C 369.134 439.289, 373.307 439.283, 379.741 434.354 C 382.359 432.349, 385.962 430.093, 387.750 429.341 C 391.653 427.699, 391.918 425.739, 388.453 424.161 C 385.318 422.732, 385.864 422.505, 383.500 426.222" stroke="none" fill="black" fill-rule="evenodd"/>
</svg>